<?xml version="1.0" encoding="UTF-8"?>
<svg id="Layer_1" data-name="Layer 1" xmlns="http://www.w3.org/2000/svg" viewBox="0 0 27.23 30.52">
  <defs>
    <style>
      .cls-1 {
        fill: none;
        stroke: #231f20;
        stroke-miterlimit: 10;
      }

      .cls-2 {
        fill: #231f20;
      }
    </style>
  </defs>
  <path class="cls-2" d="m5.46,13.81c-1.07,0-2.1-.14-3.08-.43-.98-.29-1.78-.66-2.38-1.12l1.05-2.33c.56.41,1.23.74,2.02,1s1.58.39,2.38.39c.61,0,1.1-.06,1.48-.19s.65-.3.83-.51c.18-.21.27-.46.27-.73,0-.36-.14-.64-.42-.85s-.65-.38-1.12-.52-.97-.26-1.52-.38-1.1-.27-1.65-.44-1.06-.4-1.53-.69-.83-.66-1.11-1.13-.41-1.05-.41-1.75c0-.76.2-1.46.61-2.09.41-.63,1.03-1.13,1.86-1.51s1.88-.56,3.14-.56c.84,0,1.67.1,2.49.31.82.2,1.54.5,2.15.88l-.97,2.33c-.6-.34-1.21-.6-1.85-.77s-1.25-.26-1.83-.26-1.1.07-1.47.2-.64.31-.81.54c-.17.23-.26.48-.26.76,0,.36.14.64.42.86s.65.38,1.11.51c.46.12.97.24,1.53.36.56.12,1.11.27,1.66.45s1.05.4,1.51.68.83.64,1.12,1.11.43,1.04.43,1.73c0,.75-.21,1.44-.62,2.06s-1.04,1.13-1.88,1.51-1.89.57-3.15.57Z"/>
  <path class="cls-2" d="m14.99,13.58V.23h6.52c1.68,0,2.94.32,3.79.95.85.64,1.27,1.48,1.27,2.52,0,.7-.17,1.31-.52,1.82s-.82.91-1.42,1.19c-.6.28-1.29.42-2.05.42l.36-.8c.84,0,1.58.14,2.22.42s1.15.69,1.52,1.22.55,1.19.55,1.97c0,1.14-.45,2.04-1.35,2.68-.9.64-2.23.96-3.99.96h-6.91Zm3.07-2.33h3.62c.79,0,1.39-.13,1.81-.4.42-.27.63-.68.63-1.24s-.21-.99-.63-1.26-1.02-.4-1.81-.4h-3.85v-2.25h3.3c.75,0,1.33-.13,1.73-.39s.6-.66.6-1.19-.2-.93-.6-1.18-.98-.38-1.73-.38h-3.07v8.7Z"/>
  <path class="cls-2" d="m4.35,30.54c-.9,0-1.73-.17-2.49-.51s-1.38-.82-1.86-1.46l1.72-2.04c.36.48.74.85,1.15,1.09.41.24.86.36,1.33.36,1.26,0,1.89-.73,1.89-2.19v-6.35H1.41v-2.48h7.77v8.66c0,1.65-.41,2.89-1.23,3.7s-2.02,1.22-3.6,1.22h0Z"/>
  <path class="cls-1" d="m23,27.34c-.21.11-.41.21-.62.28-.58.2-1.17.31-1.78.31s-1.22-.11-1.75-.32-.98-.52-1.37-.9c-.39-.38-.69-.84-.9-1.36-.21-.53-.31-1.1-.31-1.71s.1-1.21.31-1.74.51-.97.9-1.35c.39-.38.85-.68,1.38-.89s1.12-.31,1.76-.31c.69,0,1.32.12,1.89.37s1.11.63,1.6,1.15l1.97-1.83c-.65-.75-1.45-1.32-2.39-1.72-.95-.39-2.01-.59-3.2-.59-1.07,0-2.05.17-2.94.51s-1.67.82-2.33,1.44c-.66.62-1.17,1.35-1.54,2.19-.36.84-.54,1.76-.54,2.77s.18,1.93.54,2.77c.36.84.87,1.57,1.52,2.19s1.42,1.1,2.31,1.44c.89.34,1.86.51,2.92.51.95,0,1.91-.14,2.86-.43s1.8-.71,2.54-1.27v-5.42h-2.82v3.92h0Z"/>
</svg>