<?xml version="1.0" encoding="UTF-8"?>
<svg id="Layer_1" data-name="Layer 1" xmlns="http://www.w3.org/2000/svg" viewBox="0 0 325.14 67.26">
  <defs>
    <style>
      .cls-1 {
        fill: none;
        stroke: #231f20;
        stroke-miterlimit: 10;
        stroke-width: 1.25px;
      }

      .cls-2 {
        fill: #231f20;
      }
    </style>
  </defs>
  <g>
    <path class="cls-2" d="m2.96,60.76l-.86,5.33h-1.1l2.5-15.03h1.6l2.61,15.03h-1.17l-.9-5.33h-2.68Zm2.52-1.01c-.65-3.83-1.06-6.48-1.19-7.72h-.04c-.04,1.1-.65,4.61-1.13,7.72h2.36Z"/>
    <path class="cls-2" d="m13.31,51.05h2.23c2.25,0,3.2,1.01,3.2,3.35v.76c0,1.84-.56,2.86-1.53,3.18.99.31,1.39,1.1,1.39,3.08,0,1.31-.03,3.69.16,4.66h-1.08c-.18-.97-.16-3.53-.16-4.55,0-2.03-.31-2.68-1.89-2.68h-1.21v7.22h-1.1v-15.03Zm1.1,6.84h1.31c1.58,0,1.89-1.08,1.89-2.68v-.76c0-1.53-.48-2.43-2.11-2.43h-1.08v5.87Z"/>
    <path class="cls-2" d="m30.31,61.9v.45c0,2.05-.38,3.91-2.79,3.91s-2.81-1.91-2.81-4.05v-7.7c0-2.48,1.01-3.65,2.81-3.65,2.32,0,2.73,1.73,2.73,3.62v.52h-1.15v-.54c0-1.31-.16-2.59-1.6-2.59s-1.66,1.13-1.66,2.66v7.7c0,1.87.43,3.04,1.71,3.04,1.42,0,1.62-1.26,1.62-2.9v-.48h1.15,0Z"/>
    <path class="cls-2" d="m36.21,51.05h1.1v6.43h3.58v-6.43h1.1v15.03h-1.1v-7.59h-3.58v7.59h-1.1v-15.03Z"/>
    <path class="cls-2" d="m49.64,51.05v15.03h-1.1v-15.03h1.1Z"/>
    <path class="cls-2" d="m57.59,52.07h-2.45v-1.01h5.97v1.01h-2.41v14.02h-1.1v-14.02h0Z"/>
    <path class="cls-2" d="m71.01,58.53h-3.42v6.55h3.85l-.16,1.01h-4.8v-15.03h4.73v1.01h-3.62v5.45h3.42v1.01h0Z"/>
    <path class="cls-2" d="m82.54,61.9v.45c0,2.05-.38,3.91-2.79,3.91s-2.81-1.91-2.81-4.05v-7.7c0-2.48,1.01-3.65,2.81-3.65,2.32,0,2.73,1.73,2.73,3.62v.52h-1.15v-.54c0-1.31-.16-2.59-1.6-2.59s-1.66,1.13-1.66,2.66v7.7c0,1.87.43,3.04,1.71,3.04,1.42,0,1.62-1.26,1.62-2.9v-.48h1.15,0Z"/>
    <path class="cls-2" d="m89.96,52.07h-2.45v-1.01h5.97v1.01h-2.41v14.02h-1.1v-14.02h0Z"/>
    <path class="cls-2" d="m99.26,62v.83c0,1.62.59,2.48,1.76,2.48s1.76-.74,1.76-2.86c0-1.84-.41-2.66-1.98-3.87-1.6-1.24-2.39-1.96-2.39-4.16,0-1.84.56-3.56,2.68-3.53,1.87,0,2.56,1.17,2.56,3.26v.63h-1.1v-.61c0-1.38-.29-2.32-1.49-2.32s-1.55,1.08-1.55,2.39c0,1.64.34,2.16,1.76,3.26,1.98,1.53,2.61,2.34,2.61,4.81,0,2.11-.49,3.96-2.86,3.96-2.16,0-2.86-1.46-2.86-3.45v-.83h1.1Z"/>
    <path class="cls-2" d="m124.58,56.93l-2.11,5.97,1.8,3.2h-1.24l-1.08-1.89c-.65,1.38-1.46,2.03-2.66,2.03-2.03,0-2.63-1.71-2.63-3.83s.61-3.08,1.87-4.28c-.81-1.46-1.06-2.39-1.06-4.14s.65-3.11,2.28-3.11,2.18,1.13,2.18,2.9c0,2.11-.54,3.04-2.11,4.43l2,3.53,1.69-4.81h1.08,0Zm-3.24,6.19l-2.34-4.14c-.97,1.01-1.21,1.83-1.21,3.38,0,1.8.49,2.79,1.62,2.79.88,0,1.39-.54,1.94-2.03h0Zm-1.98-5.74c1.19-1.13,1.51-1.91,1.51-3.49,0-1.19-.18-2.05-1.14-2.05-.86,0-1.19.88-1.19,2.11,0,1.51.09,2.07.83,3.42h0Z"/>
    <path class="cls-2" d="m138.76,51.05v15.03h-1.1v-15.03h1.1Z"/>
    <path class="cls-2" d="m145.36,66.09v-15.03h1.38l2.95,10.29c.34,1.21.52,2.09.61,2.68h.04c-.07-2.14-.11-4.25-.11-6.68v-6.28h1.08v15.03h-1.33l-3.29-11.71c-.23-.76-.31-1.33-.38-1.71h-.03c.09,1.8.16,4.46.16,7.18v6.23h-1.08Z"/>
    <path class="cls-2" d="m159.23,52.07h-2.45v-1.01h5.97v1.01h-2.41v14.02h-1.1v-14.02h0Z"/>
    <path class="cls-2" d="m172.64,58.53h-3.42v6.55h3.85l-.16,1.01h-4.8v-15.03h4.73v1.01h-3.62v5.45h3.42v1.01h0Z"/>
    <path class="cls-2" d="m178.7,51.05h2.23c2.25,0,3.2,1.01,3.2,3.35v.76c0,1.84-.56,2.86-1.53,3.18.99.31,1.39,1.1,1.39,3.08,0,1.31-.03,3.69.16,4.66h-1.08c-.18-.97-.16-3.53-.16-4.55,0-2.03-.31-2.68-1.89-2.68h-1.21v7.22h-1.1v-15.03h0Zm1.1,6.84h1.31c1.58,0,1.89-1.08,1.89-2.68v-.76c0-1.53-.48-2.43-2.11-2.43h-1.08v5.87h0Z"/>
    <path class="cls-2" d="m191.4,51.05v15.03h-1.1v-15.03h1.1Z"/>
    <path class="cls-2" d="m203.6,54.54v7.97c0,2.48-.99,3.76-3.01,3.76-2.25,0-2.93-1.53-2.93-3.76v-7.95c0-2.34.97-3.69,3-3.69,2.18,0,2.95,1.64,2.95,3.67h0Zm-4.81.03v7.97c0,2,.72,2.75,1.84,2.75,1.19,0,1.84-.74,1.84-2.84v-7.85c0-1.87-.68-2.7-1.87-2.7s-1.83.79-1.83,2.68h0Z"/>
    <path class="cls-2" d="m209.9,51.05h2.23c2.25,0,3.2,1.01,3.2,3.35v.76c0,1.84-.56,2.86-1.53,3.18.99.31,1.39,1.1,1.39,3.08,0,1.31-.03,3.69.16,4.66h-1.08c-.18-.97-.16-3.53-.16-4.55,0-2.03-.31-2.68-1.89-2.68h-1.21v7.22h-1.1v-15.03h0Zm1.1,6.84h1.31c1.58,0,1.89-1.08,1.89-2.68v-.76c0-1.53-.48-2.43-2.11-2.43h-1.08v5.87h0Z"/>
    <path class="cls-2" d="m228.83,51.05h2.41c3.28,0,3.45,2.25,3.45,4.36v6.05c0,2.32-.34,4.61-3.62,4.61h-2.23v-15.03h0Zm1.1,13.83h.99c1.93,0,2.47-1.04,2.47-3.25v-6.47c0-1.95-.35-3.12-2.45-3.12h-1.01v12.84h0Z"/>
    <path class="cls-2" d="m245.51,58.53h-3.42v6.55h3.85l-.16,1.01h-4.8v-15.03h4.73v1.01h-3.62v5.45h3.42v1.01h0Z"/>
    <path class="cls-2" d="m252.25,62v.83c0,1.62.59,2.48,1.76,2.48s1.76-.74,1.76-2.86c0-1.84-.41-2.66-1.98-3.87-1.6-1.24-2.39-1.96-2.39-4.16,0-1.84.56-3.56,2.68-3.53,1.87,0,2.56,1.17,2.56,3.26v.63h-1.1v-.61c0-1.38-.29-2.32-1.49-2.32s-1.55,1.08-1.55,2.39c0,1.64.34,2.16,1.76,3.26,1.98,1.53,2.61,2.34,2.61,4.81,0,2.11-.49,3.96-2.86,3.96-2.16,0-2.86-1.46-2.86-3.45v-.83h1.1Z"/>
    <path class="cls-2" d="m264,51.05v15.03h-1.1v-15.03h1.1Z"/>
    <path class="cls-2" d="m276.06,66.09h-.9c-.04-.23-.09-1.06-.09-1.42-.34,1.19-1.19,1.6-2.18,1.6-1.98,0-2.63-1.49-2.63-3.78v-7.85c0-2.45,1.01-3.76,2.97-3.76,2.25,0,2.81,1.53,2.81,3.65v.29h-1.1v-.29c0-1.21-.14-2.63-1.73-2.63-1.19,0-1.83.7-1.83,2.77v7.79c0,1.66.41,2.84,1.69,2.84,1.64,0,1.87-1.58,1.87-3.76v-2.52h-1.91v-.99h3.04v8.08h0Z"/>
    <path class="cls-2" d="m282.43,66.09v-15.03h1.38l2.95,10.29c.34,1.21.52,2.09.61,2.68h.04c-.07-2.14-.11-4.25-.11-6.68v-6.28h1.08v15.03h-1.33l-3.29-11.71c-.23-.76-.31-1.33-.38-1.71h-.03c.09,1.8.16,4.46.16,7.18v6.23h-1.08Z"/>
    <path class="cls-2" d="m299.47,58.53h-3.42v6.55h3.85l-.16,1.01h-4.8v-15.03h4.73v1.01h-3.62v5.45h3.42v1.01h0Z"/>
    <path class="cls-2" d="m305.53,51.05h2.23c2.25,0,3.2,1.01,3.2,3.35v.76c0,1.84-.56,2.86-1.53,3.18.99.31,1.39,1.1,1.39,3.08,0,1.31-.03,3.69.16,4.66h-1.08c-.18-.97-.16-3.53-.16-4.55,0-2.03-.31-2.68-1.89-2.68h-1.21v7.22h-1.1v-15.03h0Zm1.1,6.84h1.31c1.58,0,1.89-1.08,1.89-2.68v-.76c0-1.53-.48-2.43-2.11-2.43h-1.08v5.87h0Z"/>
    <path class="cls-2" d="m317.84,62v.83c0,1.62.59,2.48,1.76,2.48s1.76-.74,1.76-2.86c0-1.84-.41-2.66-1.98-3.87-1.6-1.24-2.39-1.96-2.39-4.16,0-1.84.56-3.56,2.68-3.53,1.87,0,2.56,1.17,2.56,3.26v.63h-1.1v-.61c0-1.38-.29-2.32-1.49-2.32s-1.55,1.08-1.55,2.39c0,1.64.34,2.16,1.76,3.26,1.98,1.53,2.61,2.34,2.61,4.81,0,2.11-.49,3.96-2.86,3.96-2.16,0-2.86-1.46-2.86-3.45v-.83h1.1Z"/>
  </g>
  <g>
    <path class="cls-2" d="m14.31,36.97c-2.8,0-5.5-.38-8.08-1.13-2.58-.75-4.66-1.73-6.23-2.93l2.75-6.1c1.47,1.07,3.23,1.94,5.3,2.63s4.15,1.03,6.25,1.03c1.6,0,2.9-.17,3.88-.5s1.71-.78,2.18-1.33c.47-.55.7-1.19.7-1.93,0-.93-.37-1.68-1.1-2.23s-1.71-1-2.93-1.35-2.55-.68-3.98-1-2.88-.7-4.33-1.15-2.78-1.05-4-1.8-2.18-1.73-2.9-2.95-1.08-2.75-1.08-4.58c0-2,.53-3.83,1.6-5.48,1.07-1.65,2.7-2.97,4.88-3.95,2.18-.98,4.93-1.48,8.23-1.48,2.2,0,4.38.27,6.53.8,2.15.53,4.03,1.3,5.63,2.3l-2.55,6.1c-1.57-.9-3.18-1.58-4.85-2.03s-3.27-.68-4.8-.68-2.88.18-3.85.53-1.68.83-2.13,1.43c-.45.6-.68,1.27-.68,2,0,.93.37,1.68,1.1,2.25s1.7,1.01,2.9,1.33c1.2.32,2.53.63,4,.95,1.47.32,2.92.71,4.35,1.18,1.43.47,2.75,1.06,3.95,1.78s2.18,1.68,2.93,2.9,1.13,2.73,1.13,4.53c0,1.97-.54,3.77-1.63,5.4s-2.73,2.95-4.93,3.95c-2.2,1-4.95,1.5-8.25,1.5Z"/>
    <path class="cls-2" d="m39.29,36.37V1.35h17.11c4.4,0,7.71.83,9.93,2.5,2.22,1.67,3.33,3.87,3.33,6.6,0,1.83-.45,3.43-1.35,4.78s-2.14,2.39-3.73,3.13c-1.58.73-3.38,1.1-5.38,1.1l.95-2.1c2.2,0,4.15.37,5.83,1.1,1.68.73,3.01,1.8,3.98,3.2s1.45,3.12,1.45,5.15c0,3-1.18,5.35-3.55,7.03-2.37,1.68-5.85,2.53-10.46,2.53h-18.11Zm8.05-6.1h9.5c2.07,0,3.65-.35,4.75-1.05,1.1-.7,1.65-1.78,1.65-3.25s-.55-2.6-1.65-3.3-2.68-1.05-4.75-1.05h-10.11v-5.9h8.65c1.97,0,3.48-.34,4.53-1.03s1.58-1.73,1.58-3.13-.53-2.43-1.58-3.1c-1.05-.67-2.56-1-4.53-1h-8.05v22.81Z"/>
    <path class="cls-2" d="m89.27,36.97c-2.37,0-4.55-.44-6.53-1.33-1.98-.88-3.61-2.16-4.88-3.83l4.5-5.35c.93,1.27,1.94,2.22,3.03,2.85,1.08.63,2.24.95,3.48.95,3.3,0,4.95-1.92,4.95-5.75V7.86h-12.26V1.35h20.36v22.71c0,4.33-1.08,7.57-3.23,9.7-2.15,2.13-5.3,3.2-9.43,3.2h0Z"/>
    <path class="cls-1" d="m138.17,28.59c-.54.28-1.08.54-1.63.73-1.52.53-3.08.8-4.68.8s-3.2-.28-4.58-.85c-1.38-.57-2.58-1.35-3.6-2.35-1.02-1-1.8-2.19-2.35-3.58-.55-1.38-.83-2.88-.83-4.48s.28-3.18.83-4.55c.55-1.37,1.33-2.55,2.35-3.55,1.02-1,2.23-1.78,3.63-2.33s2.93-.83,4.6-.83c1.8,0,3.45.33,4.95.98s2.9,1.66,4.2,3.03l5.15-4.8c-1.7-1.97-3.8-3.47-6.28-4.5-2.48-1.03-5.28-1.55-8.38-1.55-2.8,0-5.37.44-7.7,1.33s-4.37,2.14-6.1,3.78c-1.73,1.63-3.08,3.55-4.03,5.75-.95,2.2-1.43,4.62-1.43,7.25s.48,5.05,1.43,7.25c.95,2.2,2.28,4.12,3.98,5.75s3.72,2.9,6.05,3.78c2.33.88,4.88,1.33,7.65,1.33,2.5,0,5-.38,7.5-1.13,2.5-.75,4.72-1.86,6.65-3.33v-14.21h-7.4v10.27h0Z"/>
    <path class="cls-1" d="m186.84,20.79c1.23-1.88,1.85-4.15,1.85-6.78s-.62-4.85-1.85-6.75c-1.23-1.9-2.98-3.36-5.25-4.38s-4.97-1.53-8.1-1.53h-15.16v35.02h8.15v-9.8h7c.12,0,.24,0,.36,0l6.8,9.81h8.7l-7.8-11.26s4.07-2.44,5.3-4.32Zm-8.2-2.28c-1.27,1.07-3.13,1.6-5.6,1.6h-6.55V7.96h6.55c2.47,0,4.33.53,5.6,1.58s1.9,2.55,1.9,4.48-.63,3.43-1.9,4.5Z"/>
    <path class="cls-1" d="m217.36,36.97c-2.77,0-5.32-.45-7.65-1.35-2.33-.9-4.37-2.17-6.1-3.8-1.73-1.63-3.08-3.55-4.03-5.75-.95-2.2-1.43-4.6-1.43-7.2s.48-5.05,1.43-7.23c.95-2.18,2.29-4.1,4.03-5.73,1.73-1.63,3.76-2.9,6.08-3.8s4.86-1.35,7.63-1.35,5.31.44,7.63,1.33c2.32.88,4.35,2.14,6.08,3.78,1.73,1.63,3.08,3.55,4.03,5.75.95,2.2,1.43,4.62,1.43,7.25s-.48,5.01-1.43,7.23-2.29,4.15-4.03,5.78-3.76,2.9-6.08,3.78c-2.32.88-4.85,1.33-7.58,1.33h0Zm-.05-6.85c1.57,0,3.01-.28,4.33-.83,1.32-.55,2.48-1.33,3.48-2.35,1-1.02,1.78-2.2,2.33-3.55s.83-2.86.83-4.53-.28-3.18-.83-4.53c-.55-1.35-1.33-2.53-2.33-3.55s-2.16-1.8-3.48-2.35c-1.32-.55-2.76-.83-4.33-.83s-3.02.28-4.35.83-2.5,1.33-3.48,2.35c-.98,1.02-1.75,2.2-2.3,3.55-.55,1.35-.83,2.86-.83,4.53s.28,3.18.83,4.53c.55,1.35,1.32,2.53,2.3,3.55.98,1.02,2.14,1.8,3.48,2.35,1.33.55,2.78.83,4.35.83Z"/>
    <path class="cls-1" d="m263.38,36.97c-4.97,0-8.85-1.38-11.66-4.15s-4.2-6.73-4.2-11.91V1.35h8.15v19.36c0,3.3.68,5.7,2.05,7.18s3.27,2.23,5.7,2.23,4.38-.74,5.75-2.23c1.37-1.48,2.05-3.88,2.05-7.18V1.35h7.95v19.56c0,5.17-1.4,9.14-4.2,11.91-2.8,2.77-6.67,4.15-11.61,4.15Z"/>
    <path class="cls-1" d="m320.38,7.26c-1.23-1.9-2.98-3.36-5.25-4.38-2.27-1.02-4.97-1.53-8.1-1.53h-15.16v35.02h8.15v-9.65h7c3.13,0,5.83-.52,8.1-1.55,2.27-1.03,4.02-2.5,5.25-4.38,1.23-1.88,1.85-4.15,1.85-6.78s-.62-4.85-1.85-6.75h0Zm-8.2,11.26c-1.27,1.07-3.13,1.6-5.6,1.6h-6.55V7.96h6.55c2.47,0,4.33.53,5.6,1.58,1.27,1.05,1.9,2.55,1.9,4.48s-.63,3.43-1.9,4.5Z"/>
  </g>
  <text/>
</svg>